<mxfile host="app.diagrams.net" modified="2024-04-02T00:07:58.927Z" agent="Mozilla/5.0 (Windows NT 10.0; Win64; x64; rv:124.0) Gecko/20100101 Firefox/124.0" etag="t5zvYdGh_sirN769l6Ol" version="24.2.1" type="device">
  <diagram id="C5RBs43oDa-KdzZeNtuy" name="Page-1">
    <mxGraphModel dx="1298" dy="748" grid="1" gridSize="10" guides="1" tooltips="1" connect="1" arrows="1" fold="1" page="1" pageScale="1" pageWidth="827" pageHeight="1169" math="0" shadow="0">
      <root>
        <mxCell id="WIyWlLk6GJQsqaUBKTNV-0" />
        <mxCell id="WIyWlLk6GJQsqaUBKTNV-1" parent="WIyWlLk6GJQsqaUBKTNV-0" />
        <mxCell id="zkfFHV4jXpPFQw0GAbJ--0" value="Marca" style="swimlane;fontStyle=2;align=center;verticalAlign=top;childLayout=stackLayout;horizontal=1;startSize=26;horizontalStack=0;resizeParent=1;resizeLast=0;collapsible=1;marginBottom=0;rounded=0;shadow=0;strokeWidth=1;fillColor=#fff2cc;strokeColor=#d6b656;" parent="WIyWlLk6GJQsqaUBKTNV-1" vertex="1">
          <mxGeometry x="90" y="40" width="160" height="190" as="geometry">
            <mxRectangle x="230" y="140" width="160" height="26" as="alternateBounds" />
          </mxGeometry>
        </mxCell>
        <mxCell id="zkfFHV4jXpPFQw0GAbJ--1" value="- codigo: Integer " style="text;align=left;verticalAlign=top;spacingLeft=4;spacingRight=4;overflow=hidden;rotatable=0;points=[[0,0.5],[1,0.5]];portConstraint=eastwest;fillColor=#fff2cc;strokeColor=#d6b656;" parent="zkfFHV4jXpPFQw0GAbJ--0" vertex="1">
          <mxGeometry y="26" width="160" height="26" as="geometry" />
        </mxCell>
        <mxCell id="zkfFHV4jXpPFQw0GAbJ--2" value="- descricao: String" style="text;align=left;verticalAlign=top;spacingLeft=4;spacingRight=4;overflow=hidden;rotatable=0;points=[[0,0.5],[1,0.5]];portConstraint=eastwest;rounded=0;shadow=0;html=0;fillColor=#fff2cc;strokeColor=#d6b656;" parent="zkfFHV4jXpPFQw0GAbJ--0" vertex="1">
          <mxGeometry y="52" width="160" height="26" as="geometry" />
        </mxCell>
        <mxCell id="zkfFHV4jXpPFQw0GAbJ--4" value="" style="line;html=1;strokeWidth=1;align=left;verticalAlign=middle;spacingTop=-1;spacingLeft=3;spacingRight=3;rotatable=0;labelPosition=right;points=[];portConstraint=eastwest;" parent="zkfFHV4jXpPFQw0GAbJ--0" vertex="1">
          <mxGeometry y="78" width="160" height="8" as="geometry" />
        </mxCell>
        <mxCell id="zkfFHV4jXpPFQw0GAbJ--5" value="+ cadastrar()&#xa;" style="text;align=left;verticalAlign=top;spacingLeft=4;spacingRight=4;overflow=hidden;rotatable=0;points=[[0,0.5],[1,0.5]];portConstraint=eastwest;fillColor=#fff2cc;strokeColor=#d6b656;" parent="zkfFHV4jXpPFQw0GAbJ--0" vertex="1">
          <mxGeometry y="86" width="160" height="26" as="geometry" />
        </mxCell>
        <mxCell id="iDM2VUAS1VkdenT-Fgnp-1" value="+ editar(codigo)&#xa;" style="text;align=left;verticalAlign=top;spacingLeft=4;spacingRight=4;overflow=hidden;rotatable=0;points=[[0,0.5],[1,0.5]];portConstraint=eastwest;fillColor=#fff2cc;strokeColor=#d6b656;" vertex="1" parent="zkfFHV4jXpPFQw0GAbJ--0">
          <mxGeometry y="112" width="160" height="26" as="geometry" />
        </mxCell>
        <mxCell id="iDM2VUAS1VkdenT-Fgnp-2" value="+ excluir(codigo)&#xa;" style="text;align=left;verticalAlign=top;spacingLeft=4;spacingRight=4;overflow=hidden;rotatable=0;points=[[0,0.5],[1,0.5]];portConstraint=eastwest;fillColor=#fff2cc;strokeColor=#d6b656;" vertex="1" parent="zkfFHV4jXpPFQw0GAbJ--0">
          <mxGeometry y="138" width="160" height="26" as="geometry" />
        </mxCell>
        <mxCell id="iDM2VUAS1VkdenT-Fgnp-4" value="+ listar(): List&lt;Marca&gt;&#xa;" style="text;align=left;verticalAlign=top;spacingLeft=4;spacingRight=4;overflow=hidden;rotatable=0;points=[[0,0.5],[1,0.5]];portConstraint=eastwest;fillColor=#fff2cc;strokeColor=#d6b656;" vertex="1" parent="zkfFHV4jXpPFQw0GAbJ--0">
          <mxGeometry y="164" width="160" height="26" as="geometry" />
        </mxCell>
        <mxCell id="zkfFHV4jXpPFQw0GAbJ--17" value="Modelo" style="swimlane;fontStyle=0;align=center;verticalAlign=top;childLayout=stackLayout;horizontal=1;startSize=26;horizontalStack=0;resizeParent=1;resizeLast=0;collapsible=1;marginBottom=0;rounded=0;shadow=0;strokeWidth=1;fillColor=#fff2cc;strokeColor=#d6b656;" parent="WIyWlLk6GJQsqaUBKTNV-1" vertex="1">
          <mxGeometry x="334" y="40" width="160" height="216" as="geometry">
            <mxRectangle x="550" y="140" width="160" height="26" as="alternateBounds" />
          </mxGeometry>
        </mxCell>
        <mxCell id="zkfFHV4jXpPFQw0GAbJ--18" value="- codigo: Integer" style="text;align=left;verticalAlign=top;spacingLeft=4;spacingRight=4;overflow=hidden;rotatable=0;points=[[0,0.5],[1,0.5]];portConstraint=eastwest;fillColor=#fff2cc;strokeColor=#d6b656;" parent="zkfFHV4jXpPFQw0GAbJ--17" vertex="1">
          <mxGeometry y="26" width="160" height="26" as="geometry" />
        </mxCell>
        <mxCell id="zkfFHV4jXpPFQw0GAbJ--19" value="- marca: Marca" style="text;align=left;verticalAlign=top;spacingLeft=4;spacingRight=4;overflow=hidden;rotatable=0;points=[[0,0.5],[1,0.5]];portConstraint=eastwest;rounded=0;shadow=0;html=0;fillColor=#fff2cc;strokeColor=#d6b656;" parent="zkfFHV4jXpPFQw0GAbJ--17" vertex="1">
          <mxGeometry y="52" width="160" height="26" as="geometry" />
        </mxCell>
        <mxCell id="zkfFHV4jXpPFQw0GAbJ--20" value="- descricao: String" style="text;align=left;verticalAlign=top;spacingLeft=4;spacingRight=4;overflow=hidden;rotatable=0;points=[[0,0.5],[1,0.5]];portConstraint=eastwest;rounded=0;shadow=0;html=0;fillColor=#fff2cc;strokeColor=#d6b656;" parent="zkfFHV4jXpPFQw0GAbJ--17" vertex="1">
          <mxGeometry y="78" width="160" height="26" as="geometry" />
        </mxCell>
        <mxCell id="zkfFHV4jXpPFQw0GAbJ--23" value="" style="line;html=1;strokeWidth=1;align=left;verticalAlign=middle;spacingTop=-1;spacingLeft=3;spacingRight=3;rotatable=0;labelPosition=right;points=[];portConstraint=eastwest;fillColor=#fff2cc;strokeColor=#d6b656;" parent="zkfFHV4jXpPFQw0GAbJ--17" vertex="1">
          <mxGeometry y="104" width="160" height="8" as="geometry" />
        </mxCell>
        <mxCell id="iDM2VUAS1VkdenT-Fgnp-6" value="+ cadastrar()&#xa;" style="text;align=left;verticalAlign=top;spacingLeft=4;spacingRight=4;overflow=hidden;rotatable=0;points=[[0,0.5],[1,0.5]];portConstraint=eastwest;fillColor=#fff2cc;strokeColor=#d6b656;" vertex="1" parent="zkfFHV4jXpPFQw0GAbJ--17">
          <mxGeometry y="112" width="160" height="26" as="geometry" />
        </mxCell>
        <mxCell id="iDM2VUAS1VkdenT-Fgnp-8" value="+ excluir(codigo)&#xa;" style="text;align=left;verticalAlign=top;spacingLeft=4;spacingRight=4;overflow=hidden;rotatable=0;points=[[0,0.5],[1,0.5]];portConstraint=eastwest;fillColor=#fff2cc;strokeColor=#d6b656;" vertex="1" parent="zkfFHV4jXpPFQw0GAbJ--17">
          <mxGeometry y="138" width="160" height="26" as="geometry" />
        </mxCell>
        <mxCell id="iDM2VUAS1VkdenT-Fgnp-7" value="+ editar(codigo)&#xa;" style="text;align=left;verticalAlign=top;spacingLeft=4;spacingRight=4;overflow=hidden;rotatable=0;points=[[0,0.5],[1,0.5]];portConstraint=eastwest;fillColor=#fff2cc;strokeColor=#d6b656;" vertex="1" parent="zkfFHV4jXpPFQw0GAbJ--17">
          <mxGeometry y="164" width="160" height="26" as="geometry" />
        </mxCell>
        <mxCell id="iDM2VUAS1VkdenT-Fgnp-9" value="+ listar(): List&lt;Modelo&gt;&#xa;" style="text;align=left;verticalAlign=top;spacingLeft=4;spacingRight=4;overflow=hidden;rotatable=0;points=[[0,0.5],[1,0.5]];portConstraint=eastwest;fillColor=#fff2cc;strokeColor=#d6b656;" vertex="1" parent="zkfFHV4jXpPFQw0GAbJ--17">
          <mxGeometry y="190" width="160" height="26" as="geometry" />
        </mxCell>
        <mxCell id="iDM2VUAS1VkdenT-Fgnp-3" value="" style="endArrow=diamondThin;endFill=1;endSize=24;html=1;rounded=0;fillColor=#fff2cc;strokeColor=#000000;" edge="1" parent="WIyWlLk6GJQsqaUBKTNV-1" source="zkfFHV4jXpPFQw0GAbJ--17" target="zkfFHV4jXpPFQw0GAbJ--0">
          <mxGeometry width="160" relative="1" as="geometry">
            <mxPoint x="180" y="334" as="sourcePoint" />
            <mxPoint x="180" y="230" as="targetPoint" />
          </mxGeometry>
        </mxCell>
        <mxCell id="iDM2VUAS1VkdenT-Fgnp-10" value="Carro" style="swimlane;fontStyle=0;align=center;verticalAlign=top;childLayout=stackLayout;horizontal=1;startSize=26;horizontalStack=0;resizeParent=1;resizeLast=0;collapsible=1;marginBottom=0;rounded=0;shadow=0;strokeWidth=1;fillColor=#fff2cc;strokeColor=#d6b656;" vertex="1" parent="WIyWlLk6GJQsqaUBKTNV-1">
          <mxGeometry x="190" y="320" width="160" height="294" as="geometry">
            <mxRectangle x="550" y="140" width="160" height="26" as="alternateBounds" />
          </mxGeometry>
        </mxCell>
        <mxCell id="iDM2VUAS1VkdenT-Fgnp-11" value="- codigo: Integer" style="text;align=left;verticalAlign=top;spacingLeft=4;spacingRight=4;overflow=hidden;rotatable=0;points=[[0,0.5],[1,0.5]];portConstraint=eastwest;fillColor=#fff2cc;strokeColor=#d6b656;" vertex="1" parent="iDM2VUAS1VkdenT-Fgnp-10">
          <mxGeometry y="26" width="160" height="26" as="geometry" />
        </mxCell>
        <mxCell id="iDM2VUAS1VkdenT-Fgnp-12" value="- modelo: Modelo" style="text;align=left;verticalAlign=top;spacingLeft=4;spacingRight=4;overflow=hidden;rotatable=0;points=[[0,0.5],[1,0.5]];portConstraint=eastwest;rounded=0;shadow=0;html=0;fillColor=#fff2cc;strokeColor=#d6b656;" vertex="1" parent="iDM2VUAS1VkdenT-Fgnp-10">
          <mxGeometry y="52" width="160" height="26" as="geometry" />
        </mxCell>
        <mxCell id="iDM2VUAS1VkdenT-Fgnp-13" value="- ano: Integer" style="text;align=left;verticalAlign=top;spacingLeft=4;spacingRight=4;overflow=hidden;rotatable=0;points=[[0,0.5],[1,0.5]];portConstraint=eastwest;rounded=0;shadow=0;html=0;fillColor=#fff2cc;strokeColor=#d6b656;" vertex="1" parent="iDM2VUAS1VkdenT-Fgnp-10">
          <mxGeometry y="78" width="160" height="26" as="geometry" />
        </mxCell>
        <mxCell id="iDM2VUAS1VkdenT-Fgnp-20" value="- cor: String" style="text;align=left;verticalAlign=top;spacingLeft=4;spacingRight=4;overflow=hidden;rotatable=0;points=[[0,0.5],[1,0.5]];portConstraint=eastwest;rounded=0;shadow=0;html=0;fillColor=#fff2cc;strokeColor=#d6b656;" vertex="1" parent="iDM2VUAS1VkdenT-Fgnp-10">
          <mxGeometry y="104" width="160" height="26" as="geometry" />
        </mxCell>
        <mxCell id="iDM2VUAS1VkdenT-Fgnp-21" value="- descricao: String" style="text;align=left;verticalAlign=top;spacingLeft=4;spacingRight=4;overflow=hidden;rotatable=0;points=[[0,0.5],[1,0.5]];portConstraint=eastwest;rounded=0;shadow=0;html=0;fillColor=#fff2cc;strokeColor=#d6b656;" vertex="1" parent="iDM2VUAS1VkdenT-Fgnp-10">
          <mxGeometry y="130" width="160" height="26" as="geometry" />
        </mxCell>
        <mxCell id="iDM2VUAS1VkdenT-Fgnp-22" value="- observacao: String" style="text;align=left;verticalAlign=top;spacingLeft=4;spacingRight=4;overflow=hidden;rotatable=0;points=[[0,0.5],[1,0.5]];portConstraint=eastwest;rounded=0;shadow=0;html=0;fillColor=#fff2cc;strokeColor=#d6b656;" vertex="1" parent="iDM2VUAS1VkdenT-Fgnp-10">
          <mxGeometry y="156" width="160" height="26" as="geometry" />
        </mxCell>
        <mxCell id="iDM2VUAS1VkdenT-Fgnp-14" value="" style="line;html=1;strokeWidth=1;align=left;verticalAlign=middle;spacingTop=-1;spacingLeft=3;spacingRight=3;rotatable=0;labelPosition=right;points=[];portConstraint=eastwest;fillColor=#fff2cc;strokeColor=#d6b656;" vertex="1" parent="iDM2VUAS1VkdenT-Fgnp-10">
          <mxGeometry y="182" width="160" height="8" as="geometry" />
        </mxCell>
        <mxCell id="iDM2VUAS1VkdenT-Fgnp-15" value="+ cadastrar()&#xa;" style="text;align=left;verticalAlign=top;spacingLeft=4;spacingRight=4;overflow=hidden;rotatable=0;points=[[0,0.5],[1,0.5]];portConstraint=eastwest;fillColor=#fff2cc;strokeColor=#d6b656;" vertex="1" parent="iDM2VUAS1VkdenT-Fgnp-10">
          <mxGeometry y="190" width="160" height="26" as="geometry" />
        </mxCell>
        <mxCell id="iDM2VUAS1VkdenT-Fgnp-16" value="+ excluir(codigo)&#xa;" style="text;align=left;verticalAlign=top;spacingLeft=4;spacingRight=4;overflow=hidden;rotatable=0;points=[[0,0.5],[1,0.5]];portConstraint=eastwest;fillColor=#fff2cc;strokeColor=#d6b656;" vertex="1" parent="iDM2VUAS1VkdenT-Fgnp-10">
          <mxGeometry y="216" width="160" height="26" as="geometry" />
        </mxCell>
        <mxCell id="iDM2VUAS1VkdenT-Fgnp-17" value="+ editar(codigo)&#xa;" style="text;align=left;verticalAlign=top;spacingLeft=4;spacingRight=4;overflow=hidden;rotatable=0;points=[[0,0.5],[1,0.5]];portConstraint=eastwest;fillColor=#fff2cc;strokeColor=#d6b656;" vertex="1" parent="iDM2VUAS1VkdenT-Fgnp-10">
          <mxGeometry y="242" width="160" height="26" as="geometry" />
        </mxCell>
        <mxCell id="iDM2VUAS1VkdenT-Fgnp-18" value="+ listar(): List&lt;Carro&gt;&#xa;" style="text;align=left;verticalAlign=top;spacingLeft=4;spacingRight=4;overflow=hidden;rotatable=0;points=[[0,0.5],[1,0.5]];portConstraint=eastwest;fillColor=#fff2cc;strokeColor=#d6b656;" vertex="1" parent="iDM2VUAS1VkdenT-Fgnp-10">
          <mxGeometry y="268" width="160" height="26" as="geometry" />
        </mxCell>
        <mxCell id="iDM2VUAS1VkdenT-Fgnp-19" value="" style="endArrow=diamondThin;endFill=1;endSize=24;html=1;rounded=0;fillColor=#fff2cc;strokeColor=#000000;" edge="1" parent="WIyWlLk6GJQsqaUBKTNV-1" source="iDM2VUAS1VkdenT-Fgnp-10" target="zkfFHV4jXpPFQw0GAbJ--17">
          <mxGeometry width="160" relative="1" as="geometry">
            <mxPoint x="300" y="410" as="sourcePoint" />
            <mxPoint x="300" y="340" as="targetPoint" />
          </mxGeometry>
        </mxCell>
        <mxCell id="iDM2VUAS1VkdenT-Fgnp-23" value="Cliente" style="swimlane;fontStyle=2;align=center;verticalAlign=top;childLayout=stackLayout;horizontal=1;startSize=26;horizontalStack=0;resizeParent=1;resizeLast=0;collapsible=1;marginBottom=0;rounded=0;shadow=0;strokeWidth=1;fillColor=#fff2cc;strokeColor=#d6b656;" vertex="1" parent="WIyWlLk6GJQsqaUBKTNV-1">
          <mxGeometry x="570" y="40" width="160" height="242" as="geometry">
            <mxRectangle x="230" y="140" width="160" height="26" as="alternateBounds" />
          </mxGeometry>
        </mxCell>
        <mxCell id="iDM2VUAS1VkdenT-Fgnp-24" value="- codigo: Integer " style="text;align=left;verticalAlign=top;spacingLeft=4;spacingRight=4;overflow=hidden;rotatable=0;points=[[0,0.5],[1,0.5]];portConstraint=eastwest;fillColor=#fff2cc;strokeColor=#d6b656;" vertex="1" parent="iDM2VUAS1VkdenT-Fgnp-23">
          <mxGeometry y="26" width="160" height="26" as="geometry" />
        </mxCell>
        <mxCell id="iDM2VUAS1VkdenT-Fgnp-25" value="- nome: String" style="text;align=left;verticalAlign=top;spacingLeft=4;spacingRight=4;overflow=hidden;rotatable=0;points=[[0,0.5],[1,0.5]];portConstraint=eastwest;rounded=0;shadow=0;html=0;fillColor=#fff2cc;strokeColor=#d6b656;" vertex="1" parent="iDM2VUAS1VkdenT-Fgnp-23">
          <mxGeometry y="52" width="160" height="26" as="geometry" />
        </mxCell>
        <mxCell id="iDM2VUAS1VkdenT-Fgnp-31" value="- email: String" style="text;align=left;verticalAlign=top;spacingLeft=4;spacingRight=4;overflow=hidden;rotatable=0;points=[[0,0.5],[1,0.5]];portConstraint=eastwest;rounded=0;shadow=0;html=0;fillColor=#fff2cc;strokeColor=#d6b656;" vertex="1" parent="iDM2VUAS1VkdenT-Fgnp-23">
          <mxGeometry y="78" width="160" height="26" as="geometry" />
        </mxCell>
        <mxCell id="iDM2VUAS1VkdenT-Fgnp-32" value="- senha: String" style="text;align=left;verticalAlign=top;spacingLeft=4;spacingRight=4;overflow=hidden;rotatable=0;points=[[0,0.5],[1,0.5]];portConstraint=eastwest;rounded=0;shadow=0;html=0;fillColor=#fff2cc;strokeColor=#d6b656;" vertex="1" parent="iDM2VUAS1VkdenT-Fgnp-23">
          <mxGeometry y="104" width="160" height="26" as="geometry" />
        </mxCell>
        <mxCell id="iDM2VUAS1VkdenT-Fgnp-26" value="" style="line;html=1;strokeWidth=1;align=left;verticalAlign=middle;spacingTop=-1;spacingLeft=3;spacingRight=3;rotatable=0;labelPosition=right;points=[];portConstraint=eastwest;fillColor=#fff2cc;strokeColor=#d6b656;" vertex="1" parent="iDM2VUAS1VkdenT-Fgnp-23">
          <mxGeometry y="130" width="160" height="8" as="geometry" />
        </mxCell>
        <mxCell id="iDM2VUAS1VkdenT-Fgnp-27" value="+ cadastrar()&#xa;" style="text;align=left;verticalAlign=top;spacingLeft=4;spacingRight=4;overflow=hidden;rotatable=0;points=[[0,0.5],[1,0.5]];portConstraint=eastwest;fillColor=#fff2cc;strokeColor=#d6b656;" vertex="1" parent="iDM2VUAS1VkdenT-Fgnp-23">
          <mxGeometry y="138" width="160" height="26" as="geometry" />
        </mxCell>
        <mxCell id="iDM2VUAS1VkdenT-Fgnp-28" value="+ editar(codigo)&#xa;" style="text;align=left;verticalAlign=top;spacingLeft=4;spacingRight=4;overflow=hidden;rotatable=0;points=[[0,0.5],[1,0.5]];portConstraint=eastwest;fillColor=#fff2cc;strokeColor=#d6b656;" vertex="1" parent="iDM2VUAS1VkdenT-Fgnp-23">
          <mxGeometry y="164" width="160" height="26" as="geometry" />
        </mxCell>
        <mxCell id="iDM2VUAS1VkdenT-Fgnp-29" value="+ excluir(codigo)&#xa;" style="text;align=left;verticalAlign=top;spacingLeft=4;spacingRight=4;overflow=hidden;rotatable=0;points=[[0,0.5],[1,0.5]];portConstraint=eastwest;fillColor=#fff2cc;strokeColor=#d6b656;" vertex="1" parent="iDM2VUAS1VkdenT-Fgnp-23">
          <mxGeometry y="190" width="160" height="26" as="geometry" />
        </mxCell>
        <mxCell id="iDM2VUAS1VkdenT-Fgnp-30" value="+ listar(): List&lt;Cliente&gt;&#xa;" style="text;align=left;verticalAlign=top;spacingLeft=4;spacingRight=4;overflow=hidden;rotatable=0;points=[[0,0.5],[1,0.5]];portConstraint=eastwest;fillColor=#fff2cc;strokeColor=#d6b656;" vertex="1" parent="iDM2VUAS1VkdenT-Fgnp-23">
          <mxGeometry y="216" width="160" height="26" as="geometry" />
        </mxCell>
        <mxCell id="iDM2VUAS1VkdenT-Fgnp-33" value="Locacao" style="swimlane;fontStyle=0;align=center;verticalAlign=top;childLayout=stackLayout;horizontal=1;startSize=26;horizontalStack=0;resizeParent=1;resizeLast=0;collapsible=1;marginBottom=0;rounded=0;shadow=0;strokeWidth=1;fillColor=#fff2cc;strokeColor=#d6b656;" vertex="1" parent="WIyWlLk6GJQsqaUBKTNV-1">
          <mxGeometry x="450" y="320" width="160" height="320" as="geometry">
            <mxRectangle x="550" y="140" width="160" height="26" as="alternateBounds" />
          </mxGeometry>
        </mxCell>
        <mxCell id="iDM2VUAS1VkdenT-Fgnp-34" value="- codigo: Integer" style="text;align=left;verticalAlign=top;spacingLeft=4;spacingRight=4;overflow=hidden;rotatable=0;points=[[0,0.5],[1,0.5]];portConstraint=eastwest;fillColor=#fff2cc;strokeColor=#d6b656;" vertex="1" parent="iDM2VUAS1VkdenT-Fgnp-33">
          <mxGeometry y="26" width="160" height="26" as="geometry" />
        </mxCell>
        <mxCell id="iDM2VUAS1VkdenT-Fgnp-35" value="- carro: Carro" style="text;align=left;verticalAlign=top;spacingLeft=4;spacingRight=4;overflow=hidden;rotatable=0;points=[[0,0.5],[1,0.5]];portConstraint=eastwest;rounded=0;shadow=0;html=0;fillColor=#fff2cc;strokeColor=#d6b656;" vertex="1" parent="iDM2VUAS1VkdenT-Fgnp-33">
          <mxGeometry y="52" width="160" height="26" as="geometry" />
        </mxCell>
        <mxCell id="iDM2VUAS1VkdenT-Fgnp-36" value="- cliente: Cliente" style="text;align=left;verticalAlign=top;spacingLeft=4;spacingRight=4;overflow=hidden;rotatable=0;points=[[0,0.5],[1,0.5]];portConstraint=eastwest;rounded=0;shadow=0;html=0;fillColor=#fff2cc;strokeColor=#d6b656;" vertex="1" parent="iDM2VUAS1VkdenT-Fgnp-33">
          <mxGeometry y="78" width="160" height="26" as="geometry" />
        </mxCell>
        <mxCell id="iDM2VUAS1VkdenT-Fgnp-37" value="- dataRetirada: DateTime" style="text;align=left;verticalAlign=top;spacingLeft=4;spacingRight=4;overflow=hidden;rotatable=0;points=[[0,0.5],[1,0.5]];portConstraint=eastwest;rounded=0;shadow=0;html=0;fillColor=#fff2cc;strokeColor=#d6b656;" vertex="1" parent="iDM2VUAS1VkdenT-Fgnp-33">
          <mxGeometry y="104" width="160" height="26" as="geometry" />
        </mxCell>
        <mxCell id="iDM2VUAS1VkdenT-Fgnp-38" value="- dataDevolucao: DateTime" style="text;align=left;verticalAlign=top;spacingLeft=4;spacingRight=4;overflow=hidden;rotatable=0;points=[[0,0.5],[1,0.5]];portConstraint=eastwest;rounded=0;shadow=0;html=0;fillColor=#fff2cc;strokeColor=#d6b656;" vertex="1" parent="iDM2VUAS1VkdenT-Fgnp-33">
          <mxGeometry y="130" width="160" height="26" as="geometry" />
        </mxCell>
        <mxCell id="iDM2VUAS1VkdenT-Fgnp-39" value="- valor: Float" style="text;align=left;verticalAlign=top;spacingLeft=4;spacingRight=4;overflow=hidden;rotatable=0;points=[[0,0.5],[1,0.5]];portConstraint=eastwest;rounded=0;shadow=0;html=0;fillColor=#fff2cc;strokeColor=#d6b656;" vertex="1" parent="iDM2VUAS1VkdenT-Fgnp-33">
          <mxGeometry y="156" width="160" height="26" as="geometry" />
        </mxCell>
        <mxCell id="iDM2VUAS1VkdenT-Fgnp-48" value="- observacao: String" style="text;align=left;verticalAlign=top;spacingLeft=4;spacingRight=4;overflow=hidden;rotatable=0;points=[[0,0.5],[1,0.5]];portConstraint=eastwest;rounded=0;shadow=0;html=0;fillColor=#fff2cc;strokeColor=#d6b656;" vertex="1" parent="iDM2VUAS1VkdenT-Fgnp-33">
          <mxGeometry y="182" width="160" height="26" as="geometry" />
        </mxCell>
        <mxCell id="iDM2VUAS1VkdenT-Fgnp-40" value="" style="line;html=1;strokeWidth=1;align=left;verticalAlign=middle;spacingTop=-1;spacingLeft=3;spacingRight=3;rotatable=0;labelPosition=right;points=[];portConstraint=eastwest;fillColor=#fff2cc;strokeColor=#d6b656;" vertex="1" parent="iDM2VUAS1VkdenT-Fgnp-33">
          <mxGeometry y="208" width="160" height="8" as="geometry" />
        </mxCell>
        <mxCell id="iDM2VUAS1VkdenT-Fgnp-41" value="+ cadastrar()&#xa;" style="text;align=left;verticalAlign=top;spacingLeft=4;spacingRight=4;overflow=hidden;rotatable=0;points=[[0,0.5],[1,0.5]];portConstraint=eastwest;fillColor=#fff2cc;strokeColor=#d6b656;" vertex="1" parent="iDM2VUAS1VkdenT-Fgnp-33">
          <mxGeometry y="216" width="160" height="26" as="geometry" />
        </mxCell>
        <mxCell id="iDM2VUAS1VkdenT-Fgnp-42" value="+ excluir(codigo)&#xa;" style="text;align=left;verticalAlign=top;spacingLeft=4;spacingRight=4;overflow=hidden;rotatable=0;points=[[0,0.5],[1,0.5]];portConstraint=eastwest;fillColor=#fff2cc;strokeColor=#d6b656;" vertex="1" parent="iDM2VUAS1VkdenT-Fgnp-33">
          <mxGeometry y="242" width="160" height="26" as="geometry" />
        </mxCell>
        <mxCell id="iDM2VUAS1VkdenT-Fgnp-43" value="+ editar(codigo)&#xa;" style="text;align=left;verticalAlign=top;spacingLeft=4;spacingRight=4;overflow=hidden;rotatable=0;points=[[0,0.5],[1,0.5]];portConstraint=eastwest;fillColor=#fff2cc;strokeColor=#d6b656;" vertex="1" parent="iDM2VUAS1VkdenT-Fgnp-33">
          <mxGeometry y="268" width="160" height="26" as="geometry" />
        </mxCell>
        <mxCell id="iDM2VUAS1VkdenT-Fgnp-44" value="+ listar(): List&lt;Locacao&gt;&#xa;" style="text;align=left;verticalAlign=top;spacingLeft=4;spacingRight=4;overflow=hidden;rotatable=0;points=[[0,0.5],[1,0.5]];portConstraint=eastwest;fillColor=#fff2cc;strokeColor=#d6b656;" vertex="1" parent="iDM2VUAS1VkdenT-Fgnp-33">
          <mxGeometry y="294" width="160" height="26" as="geometry" />
        </mxCell>
        <mxCell id="iDM2VUAS1VkdenT-Fgnp-46" value="" style="endArrow=diamondThin;endFill=1;endSize=24;html=1;rounded=0;fillColor=#fff2cc;strokeColor=#000000;" edge="1" parent="WIyWlLk6GJQsqaUBKTNV-1" source="iDM2VUAS1VkdenT-Fgnp-33">
          <mxGeometry width="160" relative="1" as="geometry">
            <mxPoint x="346" y="330" as="sourcePoint" />
            <mxPoint x="350" y="471" as="targetPoint" />
          </mxGeometry>
        </mxCell>
        <mxCell id="iDM2VUAS1VkdenT-Fgnp-47" value="" style="endArrow=diamondThin;endFill=1;endSize=24;html=1;rounded=0;fillColor=#fff2cc;strokeColor=#000000;" edge="1" parent="WIyWlLk6GJQsqaUBKTNV-1" source="iDM2VUAS1VkdenT-Fgnp-33" target="iDM2VUAS1VkdenT-Fgnp-23">
          <mxGeometry width="160" relative="1" as="geometry">
            <mxPoint x="740" y="400" as="sourcePoint" />
            <mxPoint x="640" y="400" as="targetPoint" />
          </mxGeometry>
        </mxCell>
        <mxCell id="iDM2VUAS1VkdenT-Fgnp-49" value="1" style="text;html=1;align=center;verticalAlign=middle;resizable=0;points=[];autosize=1;strokeColor=none;fillColor=none;" vertex="1" parent="WIyWlLk6GJQsqaUBKTNV-1">
          <mxGeometry x="600" y="278" width="30" height="30" as="geometry" />
        </mxCell>
        <mxCell id="iDM2VUAS1VkdenT-Fgnp-50" value="0..*" style="text;html=1;align=center;verticalAlign=middle;resizable=0;points=[];autosize=1;strokeColor=none;fillColor=none;" vertex="1" parent="WIyWlLk6GJQsqaUBKTNV-1">
          <mxGeometry x="560" y="300" width="40" height="30" as="geometry" />
        </mxCell>
        <mxCell id="iDM2VUAS1VkdenT-Fgnp-51" value="1" style="text;html=1;align=center;verticalAlign=middle;resizable=0;points=[];autosize=1;strokeColor=none;fillColor=none;" vertex="1" parent="WIyWlLk6GJQsqaUBKTNV-1">
          <mxGeometry x="240" y="110" width="30" height="30" as="geometry" />
        </mxCell>
        <mxCell id="iDM2VUAS1VkdenT-Fgnp-52" value="0..*" style="text;html=1;align=center;verticalAlign=middle;resizable=0;points=[];autosize=1;strokeColor=none;fillColor=none;" vertex="1" parent="WIyWlLk6GJQsqaUBKTNV-1">
          <mxGeometry x="294" y="110" width="40" height="30" as="geometry" />
        </mxCell>
        <mxCell id="iDM2VUAS1VkdenT-Fgnp-53" value="1" style="text;html=1;align=center;verticalAlign=middle;resizable=0;points=[];autosize=1;strokeColor=none;fillColor=none;" vertex="1" parent="WIyWlLk6GJQsqaUBKTNV-1">
          <mxGeometry x="320" y="252" width="30" height="30" as="geometry" />
        </mxCell>
        <mxCell id="iDM2VUAS1VkdenT-Fgnp-54" value="0..*" style="text;html=1;align=center;verticalAlign=middle;resizable=0;points=[];autosize=1;strokeColor=none;fillColor=none;" vertex="1" parent="WIyWlLk6GJQsqaUBKTNV-1">
          <mxGeometry x="304" y="290" width="40" height="30" as="geometry" />
        </mxCell>
        <mxCell id="iDM2VUAS1VkdenT-Fgnp-55" value="0..*" style="text;html=1;align=center;verticalAlign=middle;resizable=0;points=[];autosize=1;strokeColor=none;fillColor=none;" vertex="1" parent="WIyWlLk6GJQsqaUBKTNV-1">
          <mxGeometry x="414" y="450" width="40" height="30" as="geometry" />
        </mxCell>
        <mxCell id="iDM2VUAS1VkdenT-Fgnp-56" value="1" style="text;html=1;align=center;verticalAlign=middle;resizable=0;points=[];autosize=1;strokeColor=none;fillColor=none;" vertex="1" parent="WIyWlLk6GJQsqaUBKTNV-1">
          <mxGeometry x="350" y="430" width="30" height="30" as="geometry" />
        </mxCell>
      </root>
    </mxGraphModel>
  </diagram>
</mxfile>
